<?xml version="1.0" encoding="UTF-8"?>
<svg width="16" height="12" version="1.1" viewBox="0 85.333 16 12" xmlns="http://www.w3.org/2000/svg">
 <path d="m0 85.333v12h16v-12z" fill="#d80027" stroke-width=".033146"/>
 <path d="m11 90.333h-2.2918l-0.70822-2.1796-0.70822 2.1796h-2.2918l1.8541 1.3471-0.70822 2.1797 1.8541-1.3472 1.8541 1.3471-0.70822-2.1797zm-3.627 1.1785 0.23947-0.73703h0.775l0.23947 0.73703v3.2e-5l-0.62697 0.4555zm0.87103-1.1785h-0.48809l0.24403-0.75116zm0.75841 0.90569-0.15084-0.46425h0.78981zm-1.8541-0.46425-0.15084 0.46425-0.63897-0.46425zm-0.16284 1.9296 0.24406-0.75113 0.39488 0.28691zm1.39-0.46425 0.39487-0.28691 0.24406 0.75113z" fill="#20661b" stroke-width=".03125"/>
</svg>
