<svg viewBox="0 0 16 12" xmlns="http://www.w3.org/2000/svg">
 <path d="m0 0h16v12h-16z" fill="#d80027"/>
 <path d="m7.07 7.41-0.303-0.487-0.558 0.137 0.371-0.44-0.303-0.487 0.533 0.215 0.368-0.44-0.0405 0.574 0.533 0.215-0.558 0.137zm1.99-4.95-0.315 0.48 0.362 0.446-0.552-0.15-0.315 0.483-0.0312-0.574-0.552-0.15 0.536-0.206-0.0312-0.574 0.362 0.446zm-1.7-1.77-0.0624 0.571 0.524 0.237-0.561 0.119-0.0624 0.571-0.287-0.499-0.558 0.119 0.384-0.427-0.287-0.496 0.524 0.234zm1.77 4.31-0.465 0.33 0.181 0.546-0.465-0.337-0.465 0.343 0.175-0.549-0.465-0.333h0.574l0.175-0.553 0.181 0.553zm-5.55-3.66 0.54 1.66h1.75l-1.42 1.04 0.54 1.67-1.42-1.03-1.42 1.03 0.543-1.67-1.42-1.04h1.76z" fill="#ffda44"/>
</svg>
