<?xml version="1.0" encoding="UTF-8"?>
<svg width="16" height="12" version="1.1" viewBox="0 0 16 12" xmlns="http://www.w3.org/2000/svg">
 <path d="m0 0h16v12h-16z" fill="#d80027" stroke-width=".033081"/>
 <path d="m7.0737 7.4109-0.30253-0.48655-0.55828 0.13723 0.37115-0.43977-0.30253-0.48655 0.53333 0.2152 0.36803-0.43977-0.040546 0.57388 0.53333 0.2152-0.55828 0.13723zm1.9899-4.9536-0.31501 0.48031 0.36179 0.446-0.55205-0.14971-0.31501 0.48343-0.031189-0.57388-0.55205-0.14971 0.53645-0.20585-0.031189-0.57388 0.36179 0.446zm-1.6967-1.7653-0.062378 0.57076 0.52398 0.23704-0.5614 0.11852-0.062378 0.57076-0.28694-0.49903-0.55828 0.11852 0.38363-0.42729-0.28694-0.49591 0.52398 0.23392zm1.7653 4.3049-0.46472 0.33996 0.1809 0.54581-0.46472-0.33684-0.46472 0.34308 0.17466-0.54893-0.46472-0.33372 0.57388-0.0031189 0.17466-0.54893 0.1809 0.54581zm-5.5454-3.653 0.53957 1.6561h1.7528l-1.416 1.0386 0.53957 1.6686-1.416-1.0292-1.4191 1.0292 0.54269-1.6686-1.4191-1.0386h1.7559z" fill="#ffda44" stroke-width=".031189"/>
</svg>
