<?xml version="1.0" encoding="UTF-8"?>
<svg width="16" height="12" version="1.1" viewBox="0 0 16 12" xmlns="http://www.w3.org/2000/svg">
 <path d="m0 0h15.969v10.667h-15.969z" fill="#fff" stroke-width=".031189"/>
 <path d="m0 0h16v4h-16z" fill="#6da544" stroke-width=".033081"/>
 <path d="m0 8h16v4h-16z" fill="#d80027" stroke-width=".033081"/>
 <path d="m8.9825 4.4856c0.0043735 0.073385 0.38049 0.96134 0.19243 1.4457-0.28865 0.74486-0.691 0.7999-0.86594 0.89897v-2.374l-0.30177-0.15411-0.30177 0.15411v2.374c-0.17494-0.09907-0.54231-0.088062-0.86594-0.89897-0.18806-0.466 0.24929-1.3686 0.25366-1.4383 0 0-0.41548 0.29721-0.691 0.88062-0.25803 0.54305 0.083095 1.8199 1.2902 2.0107 0.10059 0.014677 0.20555 0.20548 0.31489 0.20548 0.091842 0 0.17931-0.1908 0.26241-0.20181 1.2421-0.16879 1.5307-1.5301 1.3077-2.0401-0.23617-0.53571-0.59479-0.86227-0.59479-0.86227z" fill="#d80027" stroke-width=".040059"/>
 <path d="m0 3v1h1v-1h-1zm2 0v1h1v-1h-1zm2 0v1h1v-1h-1zm2 0v1h1v-1h-1zm2 0v1h1v-1h-1zm2 0v1h1v-1h-1zm2 0v1h1v-1h-1zm2 0v1h1v-1h-1zm-13 5v1h1v-1h-1zm2 0v1h1v-1h-1zm2 0v1h1v-1h-1zm2 0v1h1v-1h-1zm2 0v1h1v-1h-1zm2 0v1h1v-1h-1zm2 0v1h1v-1h-1zm2 0v1h1v-1h-1z" fill="#fff" opacity=".5"/>
</svg>
