<svg viewBox="0 0 16 12" xmlns="http://www.w3.org/2000/svg">
 <path d="m0 3h16v6h-16z" fill="#eee"/>
 <path d="m0 0h16v4h-16z" fill="#239f40"/>
 <path d="m0 8h16v4h-16z" fill="#da0001"/>
 <path d="m8.9959 4.5334c0.0044633 0.080056 0.30577 1.1249 0.20408 1.5771-0.2 0.88942-1.2 0.88942-0.86667 0.88942l-0.025177-2.4985-0.30816-0.16812-0.30816 0.16812-0.025177 2.4985c0.33333 0-0.66667 0-0.86667-0.88942-0.10169-0.45221 0.19554-1.493 0.2-1.5691 0 0-0.35342 0.44832-0.6 0.96068-0.4 0.83113 0.26667 2.1645 1.6 2.1645s2-1.3333 1.6-2.1925c-0.22959-0.49315-0.604-0.94066-0.604-0.94066z" fill="#be1931"/>
 <path d="m0 3v1h1v-1h-1zm2 0v1h1v-1h-1zm2 0v1h1v-1h-1zm2 0v1h1v-1h-1zm2 0v1h1v-1h-1zm2 0v1h1v-1h-1zm2 0v1h1v-1h-1zm2 0v1h1v-1h-1zm-13 5v1h1v-1h-1zm2 0v1h1v-1h-1zm2 0v1h1v-1h-1zm2 0v1h1v-1h-1zm2 0v1h1v-1h-1zm2 0v1h1v-1h-1zm2 0v1h1v-1h-1zm2 0v1h1v-1h-1z" fill="#fff" opacity=".5"/>
</svg>
