<?xml version="1.0" encoding="UTF-8"?>
<svg width="16" height="12" version="1.1" viewBox="0 0 16 12" xmlns="http://www.w3.org/2000/svg">
 <path d="m0 0h16v12h-16z" fill="#fff" stroke-width=".018856"/>
 <g transform="matrix(.0098613 -.014792 .014792 .0098613 0 .70033)">
  <g stroke="#000" stroke-width="25">
   <path d="m-75 228.3h150m-150 37.5h150m-150 37.5h150m-150 475h150m-150 37.5h150m-150 37.5h150"/>
  </g>
  <path d="m0 753.3v125" stroke="#fff" stroke-width="12.5"/>
  <path d="m150 540.8a150 150 0 0 1-150 150 150 150 0 0 1-150-150 150 150 0 0 1 150-150 150 150 0 0 1 150 150z" fill="#ca163a"/>
  <path d="m0 390.8c-41.4 0-75 33.6-75 75s33.6 75 75 75 75 33.6 75 75-33.6 75-75 75c-82.8 0-150-67.2-150-150s67.2-150 150-150z" fill="#0e4896"/>
 </g>
 <g transform="matrix(.017778 0 0 .017778 0 .70033)" stroke="#000" stroke-width="25">
  <path d="m231.56 535.73-83.205-124.81m114.4 104.01-83.205-124.81m114.41 104.01-83.205-124.81m478.43-138.68-83.205-124.81m114.41 104.01-83.206-124.81m114.41 104.01-83.205-124.81"/>
 </g>
 <path d="m3.6551 8.9296 0.5547-0.36978m6.933-4.622 0.64789-0.43193m0.5547-0.3698 0.5547-0.3698" stroke="#fff" stroke-width=".22222"/>
</svg>
