<svg viewBox="0 0 16 12" xmlns="http://www.w3.org/2000/svg">
 <path d="m0 0h16v12h-16z" fill="#eee"/>
 <path d="m3.93 1.72-1.48 2.22 0.369 0.246 1.48-2.22zm8.14 0-0.371 0.246 0.678 1.02 0.371-0.248zm-7.58 0.369-1.48 2.22 0.369 0.248 1.48-2.22zm7.03 0-0.371 0.248 1.48 2.22 0.369-0.248zm-6.47 0.371-1.48 2.22 0.369 0.246 1.48-2.22zm5.92 0-0.371 0.246 0.68 1.02 0.369-0.248zm1.91 0.461-0.369 0.246 0.678 1.02 0.369-0.246zm-1.11 0.74-0.371 0.246 0.68 1.02 0.369-0.246zm-7.83 3.48-0.369 0.246 1.48 2.22 0.369-0.246zm8.13 0-0.678 1.02 0.369 0.246 0.68-1.02zm-8.69 0.369-0.369 0.248 0.678 1.02 0.369-0.248zm9.24 0-0.678 1.02 0.371 0.248 0.678-1.02zm-9.8 0.371-0.369 0.246 1.48 2.22 0.369-0.246zm10.4 0-0.678 1.02 0.369 0.246 0.68-1.02zm-1.91 0.461-0.678 1.02 0.369 0.246 0.68-1.02zm0.555 0.369-0.678 1.02 0.369 0.248 0.68-1.02zm-7.64 0.00195-0.369 0.246 0.678 1.02 0.369-0.246zm8.2 0.369-0.678 1.02 0.369 0.246 0.68-1.02z" fill="#292f33"/>
 <path d="m9.48 3.81a2.67 2.67 0 0 1 0.74 3.7 2.67 2.67 0 0 1-3.7 0.74 2.67 2.67 0 0 1-0.74-3.7 2.67 2.67 0 0 1 3.7-0.74z" fill="#c60c30"/>
 <path d="m5.78 4.55c-0.408 0.612-0.243 1.44 0.37 1.85 0.612 0.408 1.44 0.243 1.85-0.37s1.24-0.778 1.85-0.37c0.612 0.408 0.778 1.24 0.37 1.85-0.817 1.22-2.47 1.56-3.7 0.74-1.22-0.817-1.56-2.47-0.74-3.7z" fill="#003478"/>
</svg>
