<?xml version="1.0" encoding="UTF-8"?>
<svg width="18" height="12" version="1.1" viewBox="0 0 18 12" xmlns="http://www.w3.org/2000/svg">
 <path d="m0 0h18v12h-18z" fill="#009b3a" stroke-width=".035088"/>
 <path d="m9 1 7 5-7 5-7-5z" fill="#fedf00" stroke-width=".035088"/>
 <path d="m12 6c0 0.095291-0.0044 0.18954-0.01313 0.28256l-0.41272 0.57786-0.023786 0.72012c-0.52919 0.8521-1.4735 1.4195-2.5504 1.4195-1.6569 0-3-1.3431-3-3 0-0.034751 5.909e-4 -0.069364 0.0017631-0.10383l0.52311-0.513-0.13903-0.85603c0.51474-0.91164 1.4926-1.5271 2.6142-1.5271 1.6569 0 3 1.3431 3 3z" fill="#002776"/>
 <path d="m7.218 4.4486c-0.28418 0-0.5635 0.02104-0.83933 0.052871-0.24789 0.43406-0.38414 0.92286-0.39653 1.4226 0.40419-0.085999 0.81662-0.1454 1.2441-0.1454 1.6949 0 3.225 0.7181 4.3107 1.8571 0.26644-0.41418 0.42754-0.88724 0.46923-1.378-1.2809-1.1197-2.9518-1.8053-4.7881-1.8092z" fill="#fff" stroke-width="1.0065"/>
</svg>
