<svg viewBox="0 0 16 12" xmlns="http://www.w3.org/2000/svg">
 <path d="m0 0h16v12h-16z" fill="#009b3a"/>
 <path d="m8 1 7 5-7 5-7-5z" fill="#fedf00"/>
 <path d="m11 6c0 0.0953-0.0044 0.19-0.0131 0.283l-0.413 0.578-0.0238 0.72c-0.529 0.852-1.47 1.42-2.55 1.42-1.66 0-3-1.34-3-3 0-0.0348 5.91e-4 -0.0694 0.00176-0.104l0.523-0.513-0.139-0.856c0.515-0.912 1.49-1.53 2.61-1.53 1.66 0 3 1.34 3 3z" fill="#002776"/>
 <path d="m6.22 4.45c-0.284 0-0.564 0.021-0.839 0.0529-0.248 0.434-0.384 0.923-0.397 1.42 0.404-0.086 0.817-0.145 1.24-0.145 1.69 0 3.22 0.718 4.31 1.86 0.266-0.414 0.428-0.887 0.469-1.38-1.28-1.12-2.95-1.81-4.79-1.81z" fill="#eee"/>
</svg>
