<?xml version="1.0" encoding="UTF-8"?>
<svg width="16" height="12" version="1.1" viewBox="0 85.333 16 12" xmlns="http://www.w3.org/2000/svg">
 <g stroke-width=".033146">
  <path d="m0 85.333h16v12h-16z" fill="#0052b4"/>
  <path d="m0 85.333h16v4h-16z" fill="#fff"/>
  <path d="m0 93.333h16v4h-16z" fill="#d80027"/>
 </g>
 <path d="m2 87.333v5.1631c0 2.937 3.5001 3.8369 3.5001 3.8369s3.4999-0.89998 3.4999-3.8369v-5.1631z" fill="#fff" stroke-width=".057923"/>
 <path d="m3 88.333v4.2053c0 0.28083 0.065171 0.54606 0.19433 0.79471h4.6113c0.12916-0.2486 0.19433-0.51383 0.19433-0.79471v-4.2053z" fill="#d80027" stroke-width=".052467"/>
 <rect x="5" y="89.333" width="1" height="4" fill="#fff"/>
 <path d="m4.2319 94.405c0.49472 0.31084 1.003 0.49144 1.2632 0.57169 0.26026-0.0803 0.76853-0.2608 1.2632-0.57169 0.49891-0.31353 0.84872-0.6722 1.0473-1.0717a1.3372 1.3372 0 0 0-0.77498-0.24634c-0.10514 0-0.20726 0.01239-0.30541 0.03531-0.20807-0.47279-0.68038-0.80304-1.23-0.80304-0.54971 0-1.022 0.33024-1.23 0.80304a1.3463 1.3463 0 0 0-0.30541-0.03531 1.3373 1.3373 0 0 0-0.77498 0.24634c0.19839 0.39953 0.54815 0.75821 1.0471 1.0717z" fill="#0052b4" stroke-width=".053751"/>
 <rect x="4" y="91.333" width="3" height="1" fill="#fff"/>
 <rect x="4" y="89.333" width="3" height="1" fill="#fff"/>
</svg>
