<?xml version="1.0" encoding="UTF-8"?>
<svg width="16" height="12" version="1.1" viewBox="0 85.333 16 12" xmlns="http://www.w3.org/2000/svg">
 <g stroke-width=".033146">
  <path d="m0 85.333h16v12h-16z" fill="#0052b4"/>
  <path d="m0 85.333h16v4h-16z" fill="#d80027"/>
  <path d="m0 93.333h16v4h-16z" fill="#fff"/>
 </g>
 <path d="m4.2319 94.405c0.49472 0.31084 1.003 0.49144 1.2632 0.57169 0.26026-0.0803 0.76853-0.2608 1.2632-0.57169 0.49891-0.31353 0.84872-0.6722 1.0473-1.0717a1.3372 1.3372 0 0 0-0.77498-0.24634c-0.10514 0-0.20726 0.01239-0.30541 0.03531-0.20807-0.47279-0.68038-0.80304-1.23-0.80304-0.54971 0-1.022 0.33024-1.23 0.80304a1.3463 1.3463 0 0 0-0.30541-0.03531 1.3373 1.3373 0 0 0-0.77498 0.24634c0.19839 0.39953 0.54815 0.75821 1.0471 1.0717z" fill="#0052b4" stroke-width=".053751"/>
 <path d="m2 88.333v3.7099c0 2.6792 3.5001 3.5 3.5001 3.5s3.4999-0.82098 3.4999-3.5v-3.7099z" fill="#bd0022" stroke-width=".055322"/>
 <g transform="matrix(.054618 0 0 .054618 -5.0713 77.404)" fill="#ffda44">
  <path d="m147.78 218.41h91.544v-36.618l-18.309 18.309-27.465-27.463-27.462 27.463-18.309-18.309zm93.383 60.371-48.231-48.231-48.231 48.231 15.741 15.74 32.49-32.49 32.49 32.49z"/>
 </g>
 <path d="m8.1794 90.333h-1.2451c0.072514-0.1246 0.11069-0.26486 0.11065-0.40902 0-0.45341-0.36763-0.82098-0.82104-0.82098-0.31331 0-0.5854 0.17544-0.72383 0.43351-0.13845-0.25797-0.41058-0.43351-0.72384-0.43351-0.45339 0-0.82104 0.36757-0.82104 0.82098 0 0.14977 0.04072 0.28825 0.11065 0.40902h-1.2235c0 0.45343 0.39498 0.82233 0.84838 0.82233h-0.027266c0 0.45343 0.3676 0.82098 0.82104 0.82098 0 0.40147 0.28832 0.73501 0.66912 0.80637l-0.64699 1.4606c0.31887 0.12971 0.65988 0.1963 1.0041 0.19606 0.34424 2.3e-4 0.68525-0.06636 1.0041-0.19606l-0.64699-1.4606c0.3808-0.07134 0.66912-0.4049 0.66912-0.80637 0.45344 0 0.82102-0.36755 0.82102-0.82098h-0.027266c0.45362 0 0.84859-0.3689 0.84859-0.82233z" fill="#fff" stroke-width=".055324"/>
</svg>
