<svg viewBox="0 0 16 12" xmlns="http://www.w3.org/2000/svg">
 <path d="m0 0h16v12h-16z" fill="#0c4076"/>
 <path d="m0 0h16v4h-16z" fill="#c6363c"/>
 <path d="m0 8h16v4h-16z" fill="#eee"/>
 <path d="m4.91 10.1c0.424 0.311 0.86 0.491 1.08 0.572 0.223-0.0803 0.659-0.261 1.08-0.572 0.428-0.314 0.727-0.672 0.898-1.07a1.15 1.34 0 0 0-0.664-0.246c-0.0901 0-0.178 0.0124-0.262 0.0353-0.178-0.473-0.583-0.803-1.05-0.803-0.471 0-0.876 0.33-1.05 0.803a1.15 1.35 0 0 0-0.262-0.0353 1.15 1.34 0 0 0-0.664 0.246c0.17 0.4 0.47 0.758 0.898 1.07z" fill="#0052b4"/>
 <path d="m3 4v3.5c0 2.5 3 3.5 3 3.5s3-1 3-3.4v-3.6z" fill="#c6363c"/>
 <path d="m3 4h6v-2.5l-1.5 1.5-1.5-1.5-1.5 1.5-1.5-1.5zm5.5 4-1-1h-3l-1 1 1 1 1.5-1.5 1.5 1.5z" fill="#edb92e"/>
 <path d="m5 4.5c-0.552 0-1 0.448-1 1 8.34e-4 0.176 0.048 0.348 0.137 0.5h-0.637l2 2.75-0.5 1.25h2l-0.5-1.25 2-2.75h-0.637c0.0887-0.152 0.136-0.324 0.137-0.5 0-0.552-0.448-1-1-1s-1 0.448-1 1c0-0.552-0.448-1-1-1z" fill="#eee"/>
</svg>
