<?xml version="1.0" encoding="UTF-8"?>
<svg width="16" height="12" version="1.1" viewBox="0 0 16 12" xmlns="http://www.w3.org/2000/svg">
 <path d="m0 0h16v12h-16z" fill="#e30a17" stroke-width=".033081"/>
 <path d="m8.4469 3.8778c-0.50995-0.36981-1.1289-0.56834-1.7634-0.56444-1.5882 0-2.8729 1.199-2.8729 2.682s1.2885 2.682 2.8729 2.682c0.66565 0 1.2807-0.21021 1.7634-0.56444-1.1678 1.5026-3.3361 1.7751-4.8386 0.60337-1.5026-1.1717-1.7751-3.3361-0.60337-4.8386 1.1717-1.5026 3.3361-1.7751 4.8386-0.60337 0.22578 0.17517 0.4282 0.38148 0.60337 0.60337zm1.5531 2.5614-0.70458 0.8525 0.046713-1.1055-1.0277-0.40485 1.0627-0.29585 0.070068-1.1016 0.60726 0.92257 1.0705-0.27638-0.68123 0.8564 0.59558 0.93036z" fill="#fff" stroke-width=".038927"/>
</svg>
