<?xml version="1.0" encoding="UTF-8"?>
<svg width="16" height="12" version="1.1" viewBox="0 85.333 16 12" xmlns="http://www.w3.org/2000/svg">
 <path d="m0 85.333h16v12h-16z" fill="#d80027" stroke-width=".03314"/>
 <path d="m0 85.333h8v6h-8z" fill="#0052b4" stroke-width=".03125"/>
 <path d="m6.7376 88.303-1.1186 0.52617 0.59564 1.0834-1.2147-0.23242-0.15395 1.2271-0.84605-0.90246-0.8461 0.90246-0.1539-1.2271-1.2147 0.23237 0.59564-1.0834-1.1186-0.52612 1.1186-0.52617-0.59564-1.0834 1.2147 0.23237 0.15395-1.2271 0.84605 0.90246 0.8461-0.90246 0.1539 1.2271 1.2147-0.23237-0.59569 1.0834z" fill="#fff" stroke-width=".046849"/>
 <circle cx="4" cy="88.333" r="1.5" fill="#0052b4" stroke-width=".051713"/>
 <path d="m4 88.61c-0.33412 0-0.60597-0.27188-0.60597-0.60597 0-0.33412 0.27188-0.60597 0.60597-0.60597 0.33412 0 0.60597 0.27188 0.60597 0.60597s-0.27184 0.60597-0.60597 0.60597z" fill="#fff" stroke-width=".03125"/>
 <circle cx="4" cy="88.333" r="1" fill="#fff"/>
</svg>
