<svg viewBox="0 0 16 12" xmlns="http://www.w3.org/2000/svg">
 <path d="m0 0h16v12h-16z" fill="#f10d0d"/>
 <path d="m0 0h8v6h-8z" fill="#07078e"/>
 <path d="m3.16 0.396-0.154 1.23-1.21-0.232 0.596 1.08-1.12 0.525 1.12 0.525-0.596 1.08 1.21-0.232 0.154 1.23 0.846-0.902 0.846 0.902 0.154-1.23 1.21 0.232-0.598-1.08 1.12-0.525-1.12-0.525 0.598-1.08-1.21 0.232-0.154-1.23-0.846 0.902z" fill="#eee"/>
 <path d="m4 1.5c-0.828 0-1.5 0.672-1.5 1.5s0.672 1.5 1.5 1.5 1.5-0.672 1.5-1.5-0.672-1.5-1.5-1.5z" fill="#07078e"/>
 <path d="m5 3a1 1 0 0 1-1 1 1 1 0 0 1-1-1 1 1 0 0 1 1-1 1 1 0 0 1 1 1z" fill="#eee"/>
</svg>
