<svg width="36px" height="18px" xmlns="http://www.w3.org/2000/svg">
 <path d="m8.56 7.89c-0.197-0.681-0.439-1.87-0.439-1.87h-0.0281s-0.242 1.19-0.439 1.87l-0.624 2.11h2.14zm26.1-7.89h-15.6v18h15.6c0.748 0 1.35-0.602 1.35-1.35v-15.3c0-0.748-0.602-1.35-1.35-1.35zm-1.35 6.75c0 0.371-0.304 0.675-0.675 0.675h-0.641c-0.388 1.33-1.22 2.67-2.4 3.93 0.472 0.36 0.962 0.703 1.47 1.01 0.309 0.191 0.411 0.591 0.231 0.911l-0.444 0.782c-0.191 0.332-0.613 0.439-0.939 0.242-0.709-0.439-1.38-0.906-1.99-1.4-0.613 0.489-1.28 0.962-1.99 1.4-0.326 0.197-0.748 0.09-0.939-0.242l-0.444-0.782c-0.18-0.315-0.0788-0.72 0.236-0.911 0.523-0.321 1.01-0.658 1.47-1.01-0.444-0.472-0.838-0.956-1.18-1.45-0.225-0.321-0.124-0.765 0.208-0.962l0.366-0.219 0.411-0.242c0.304-0.18 0.698-0.0956 0.9 0.191 0.281 0.394 0.608 0.788 0.979 1.18 0.759-0.799 1.34-1.63 1.69-2.43h-6.43c-0.371 0-0.675-0.304-0.675-0.675v-0.9c0-0.371 0.304-0.675 0.675-0.675h3.6v-0.9c0-0.371 0.304-0.675 0.675-0.675h0.9c0.371 0 0.675 0.304 0.675 0.675v0.9h3.6c0.371 0 0.675 0.304 0.675 0.675zm-33.3-5.4v15.3c0 0.748 0.602 1.35 1.35 1.35h15.6v-18h-15.6c-0.748 0-1.35 0.602-1.35 1.35zm3.31 12.2 3.23-9.51c0.0956-0.276 0.349-0.456 0.641-0.456h1.83c0.287 0 0.546 0.186 0.641 0.456l3.23 9.51c0.146 0.439-0.174 0.894-0.641 0.894h-1.29c-0.299-2.06e-4 -0.562-0.197-0.647-0.484l-0.529-1.79h-3.39l-0.512 1.79c-0.0844 0.287-0.349 0.489-0.647 0.489h-1.29c-0.461 0-0.788-0.456-0.641-0.894z" fill="currentColor" stroke-width=".0562"/>
</svg>
